<?xml version="1.0" standalone="no"?>
<!DOCTYPE svg PUBLIC "-//W3C//DTD SVG 20010904//EN"
 "http://www.w3.org/TR/2001/REC-SVG-20010904/DTD/svg10.dtd">
<svg version="1.0" xmlns="http://www.w3.org/2000/svg"
 width="707.000000pt" height="353.000000pt" viewBox="0 0 707.000000 353.000000"
 preserveAspectRatio="xMidYMid meet">

<g transform="translate(0.000000,353.000000) scale(0.100000,-0.100000)"
fill="#000000" stroke="none">
<path d="M3400 3205 c-106 -11 -150 -23 -330 -86 -90 -32 -222 -104 -324 -177
-86 -62 -276 -247 -276 -269 0 -8 -6 -16 -14 -19 -15 -6 -69 -83 -105 -150
-11 -21 -28 -49 -37 -61 -15 -20 -13 -23 67 -85 45 -34 95 -73 113 -85 17 -12
49 -38 70 -57 22 -20 45 -36 52 -36 7 0 19 -8 26 -18 7 -10 40 -38 73 -63 l60
-45 40 88 c22 49 57 110 78 135 20 25 37 48 37 52 0 10 109 116 160 156 58 45
217 122 300 146 82 24 345 27 428 5 108 -29 213 -86 349 -188 7 -6 77 57 212
193 l202 202 -43 38 c-52 46 -178 139 -188 139 -5 0 -37 17 -71 38 -35 21 -84
45 -109 54 -25 8 -87 30 -139 47 -157 54 -392 71 -631 46z"/>
<path d="M3610 1750 l0 -280 400 0 c220 0 400 -3 400 -7 0 -19 -23 -92 -41
-130 -51 -112 -64 -136 -88 -161 -14 -15 -39 -44 -54 -64 -15 -21 -34 -38 -41
-38 -19 0 -69 -57 -57 -65 6 -3 9 -10 6 -15 -3 -4 7 -11 20 -14 14 -4 23 -11
20 -16 -3 -6 1 -10 9 -10 20 0 68 -45 58 -54 -4 -4 -2 -7 3 -5 26 6 99 -46 89
-63 -3 -5 -2 -8 3 -7 15 4 43 -13 37 -22 -3 -5 -2 -9 3 -8 20 3 44 -2 40 -8
-2 -5 8 -19 21 -33 14 -14 21 -19 17 -11 -5 9 2 7 17 -5 14 -10 25 -21 23 -24
-2 -3 17 -14 42 -24 l44 -19 52 54 c63 66 157 186 157 200 0 6 8 23 18 37 72
103 155 333 173 477 30 240 31 369 3 553 l-6 42 -684 0 -684 0 0 -280z"/>
<path d="M2770 1461 c0 -6 4 -13 10 -16 6 -3 7 1 4 9 -7 18 -14 21 -14 7z"/>
<path d="M2790 1425 c0 -5 5 -17 10 -25 5 -8 10 -10 10 -5 0 6 -5 17 -10 25
-5 8 -10 11 -10 5z"/>
<path d="M2810 1373 c0 -6 8 -17 18 -24 16 -13 16 -13 2 6 -8 11 -16 22 -17
24 -2 2 -3 0 -3 -6z"/>
<path d="M2840 1311 c0 -6 4 -13 10 -16 6 -3 7 1 4 9 -7 18 -14 21 -14 7z"/>
<path d="M2866 1267 c3 -10 9 -15 12 -12 3 3 0 11 -7 18 -10 9 -11 8 -5 -6z"/>
<path d="M2900 1231 c5 -11 15 -23 21 -27 6 -3 3 5 -6 20 -20 30 -30 35 -15 7z"/>
<path d="M2960 1157 c0 -2 15 -16 33 -33 l32 -29 -29 33 c-28 30 -36 37 -36
29z"/>
<path d="M2307 1100 c22 -39 55 -90 59 -90 7 0 -24 53 -46 80 -12 14 -18 18
-13 10z"/>
<path d="M3095 1036 c22 -20 49 -42 60 -48 26 -14 11 0 -50 46 l-50 38 40 -36z"/>
<path d="M4080 990 c-9 -6 -10 -10 -3 -10 6 0 15 5 18 10 8 12 4 12 -15 0z"/>
<path d="M2407 936 c21 -30 39 -53 41 -51 4 4 -68 105 -75 105 -2 0 13 -24 34
-54z"/>
<path d="M3225 955 c22 -14 45 -25 50 -25 6 0 -10 11 -34 25 -56 32 -68 32
-16 0z"/>
<path d="M3955 930 c-3 -6 1 -7 9 -4 18 7 21 14 7 14 -6 0 -13 -4 -16 -10z"/>
<path d="M3297 919 c7 -7 15 -10 18 -7 3 3 -2 9 -12 12 -14 6 -15 5 -6 -5z"/>
<path d="M3345 900 c11 -5 27 -9 35 -9 9 0 8 4 -5 9 -11 5 -27 9 -35 9 -9 0
-8 -4 5 -9z"/>
<path d="M3870 900 c-18 -12 -2 -12 25 0 13 6 15 9 5 9 -8 0 -22 -4 -30 -9z"/>
<path d="M3818 883 c6 -2 18 -2 25 0 6 3 1 5 -13 5 -14 0 -19 -2 -12 -5z"/>
<path d="M3508 873 c12 -2 30 -2 40 0 9 3 -1 5 -23 4 -22 0 -30 -2 -17 -4z"/>
<path d="M3688 873 c12 -2 30 -2 40 0 9 3 -1 5 -23 4 -22 0 -30 -2 -17 -4z"/>
<path d="M2510 808 c24 -27 45 -48 47 -48 8 0 0 9 -44 50 l-48 45 45 -47z"/>
<path d="M2580 725 c13 -14 26 -25 28 -25 3 0 -5 11 -18 25 -13 14 -26 25 -28
25 -3 0 5 -11 18 -25z"/>
<path d="M2627 689 c7 -7 15 -10 18 -7 3 3 -2 9 -12 12 -14 6 -15 5 -6 -5z"/>
<path d="M2650 667 c0 -3 18 -20 40 -37 22 -17 40 -29 40 -27 0 3 -18 20 -40
37 -22 17 -40 29 -40 27z"/>
<path d="M4529 629 l-24 -20 28 17 c15 9 27 18 27 20 0 8 -8 4 -31 -17z"/>
<path d="M4435 559 c-60 -49 -66 -55 -40 -41 22 12 103 81 95 81 -3 0 -27 -18
-55 -40z"/>
<path d="M2770 576 c0 -3 20 -19 45 -36 25 -17 45 -29 45 -26 0 3 -20 19 -45
36 -25 17 -45 29 -45 26z"/>
<path d="M4329 493 c-13 -17 -13 -17 6 -3 11 8 22 16 24 17 2 2 0 3 -6 3 -6 0
-17 -8 -24 -17z"/>
<path d="M2901 497 c2 -1 13 -9 24 -17 19 -14 19 -14 6 3 -7 9 -18 17 -24 17
-6 0 -8 -1 -6 -3z"/>
<path d="M3006 435 c10 -8 23 -15 28 -15 6 0 1 7 -10 15 -10 8 -23 15 -28 15
-6 0 -1 -7 10 -15z"/>
<path d="M4216 435 c-11 -8 -16 -15 -10 -15 5 0 18 7 28 15 11 8 16 15 10 15
-5 0 -18 -7 -28 -15z"/>
<path d="M4102 398 c-29 -12 -51 -23 -49 -25 5 -4 117 36 117 43 0 6 -11 3
-68 -18z"/>
<path d="M3120 395 c14 -8 30 -14 35 -14 6 0 -1 6 -15 14 -14 8 -29 14 -35 14
-5 0 1 -6 15 -14z"/>
<path d="M3185 370 c27 -12 43 -12 25 0 -8 5 -22 9 -30 9 -10 0 -8 -3 5 -9z"/>
<path d="M3238 353 c7 -3 16 -2 19 1 4 3 -2 6 -13 5 -11 0 -14 -3 -6 -6z"/>
<path d="M3978 353 c6 -2 18 -2 25 0 6 3 1 5 -13 5 -14 0 -19 -2 -12 -5z"/>
<path d="M3278 343 c7 -3 16 -2 19 1 4 3 -2 6 -13 5 -11 0 -14 -3 -6 -6z"/>
<path d="M3318 333 c7 -3 16 -2 19 1 4 3 -2 6 -13 5 -11 0 -14 -3 -6 -6z"/>
<path d="M3893 333 c9 -2 23 -2 30 0 6 3 -1 5 -18 5 -16 0 -22 -2 -12 -5z"/>
<path d="M3438 323 c12 -2 30 -2 40 0 9 3 -1 5 -23 4 -22 0 -30 -2 -17 -4z"/>
<path d="M3753 323 c9 -2 25 -2 35 0 9 3 1 5 -18 5 -19 0 -27 -2 -17 -5z"/>
<path d="M3568 313 c23 -2 59 -2 80 0 20 2 1 4 -43 4 -44 0 -61 -2 -37 -4z"/>
</g>
</svg>
